<svg width="20" height="16" fill="none" xmlns="http://www.w3.org/2000/svg"><path d="M0 3.5a3 3 0 013-3h13a3 3 0 013 3 1 1 0 01-1 1h-3.5a3.5 3.5 0 100 7H18a1 1 0 011 1 3 3 0 01-3 3H3a3 3 0 01-3-3v-9z" fill="#969696"/><path d="M20 6.92v2.14c0 .581-.47 1.08-1.061 1.08h-4.204c-1.164 0-2.102-.956-2.102-2.14 0-1.184.938-2.14 2.102-2.14h4.204c.592 0 1.06.478 1.06 1.06zM15.796 8c0-.582-.47-1.08-1.061-1.08-.592 0-1.062.478-1.062 1.08 0 .602.47 1.08 1.062 1.08.591 0 1.06-.498 1.06-1.08z" fill="#969696"/></svg>