<svg width="24" height="18" fill="none" xmlns="http://www.w3.org/2000/svg"><path d="M17.861 9.064c.625.013 1.254-.028 1.876.021.63.118.783 1.072.222 1.385-.382.206-.836.077-1.25.113h-.848v-1.52zm2.238-1.72c.138.49-.334.93-.806.863H17.86c.01-.462-.02-.964.014-1.401.574.016 1.153-.033 1.723.025.245.062.45.263.5.514zM23.544.077c.027.936.004 1.922.012 2.877-.002 3.882.003 7.765-.003 11.648-.025 1.455-1.315 2.72-2.76 2.749-1.447.006-2.893 0-4.34.002v-5.87c1.576-.008 3.153.017 4.729-.012.73-.046 1.531-.528 1.565-1.333.087-.807-.675-1.366-1.398-1.454-.278-.008-.27-.081 0-.114.69-.149 1.231-.863 1.028-1.577-.173-.752-1.004-1.043-1.695-1.042-1.41-.01-2.82-.001-4.229-.004.01-1.096-.019-2.193.015-3.288C16.58 1.23 17.902.051 19.327.076h4.217z" fill="url(#paint0_linear)"/><path d="M.525 2.806C.561 1.353 1.856.1 3.3.078c1.44-.005 2.882 0 4.323-.002-.004 4.861.008 9.723-.006 14.583-.055 1.435-1.336 2.666-2.764 2.691-1.444.005-2.888 0-4.332.002v-6.068c1.403.332 2.874.473 4.305.253.855-.138 1.79-.558 2.08-1.445.213-.759.093-1.558.125-2.337V5.946H4.555c-.011 1.197.023 2.395-.018 3.59-.067.735-.794 1.202-1.487 1.177-.86.009-2.562-.623-2.562-.623-.004-2.242.025-5.05.037-7.284z" fill="url(#paint1_linear)"/><path d="M8.547 6.676c-.13.027-.026-.444-.06-.623.01-1.131-.018-2.264.015-3.394C8.614 1.224 9.946.043 11.377.076h4.212c-.004 4.861.008 9.723-.005 14.583-.056 1.436-1.337 2.666-2.765 2.691-1.444.006-2.888.001-4.332.002v-6.648c.986.81 2.327.935 3.556.938.926 0 1.847-.143 2.746-.357v-1.218c-1.014.505-2.205.826-3.329.536-.784-.195-1.353-.953-1.34-1.762-.091-.841.402-1.73 1.229-1.98 1.026-.32 2.145-.075 3.107.343.206.108.415.242.333-.103v-.957c-1.61-.383-3.322-.524-4.938-.108-.468.132-.924.333-1.304.64z" fill="url(#paint2_linear)"/><defs><linearGradient id="paint0_linear" x1="16.404" y1="8.345" x2="23.511" y2="8.345" gradientUnits="userSpaceOnUse"><stop stop-color="#58B03A"/><stop offset="1" stop-color="#55B330"/></linearGradient><linearGradient id="paint1_linear" x1=".37" y1="8.88" x2="7.507" y2="8.88" gradientUnits="userSpaceOnUse"><stop stop-color="#0F6EB6"/><stop offset="1" stop-color="#006DBA"/></linearGradient><linearGradient id="paint2_linear" x1="8.477" y1="8.512" x2="15.588" y2="8.512" gradientUnits="userSpaceOnUse"><stop stop-color="#DE0D3D"/><stop offset="1" stop-color="#E30138"/></linearGradient></defs></svg>