<svg width="24" height="15" fill="none" xmlns="http://www.w3.org/2000/svg"><path fill-rule="evenodd" clip-rule="evenodd" d="M12 12.967a7.201 7.201 0 01-4.721 1.76C3.259 14.726 0 11.43 0 7.362 0 3.297 3.259 0 7.279 0A7.2 7.2 0 0112 1.759 7.201 7.201 0 0116.721 0C20.741 0 24 3.297 24 7.363c0 4.067-3.259 7.363-7.279 7.363A7.201 7.201 0 0112 12.967z" fill="#ED0006"/><path fill-rule="evenodd" clip-rule="evenodd" d="M12 12.967a7.382 7.382 0 002.557-5.604A7.382 7.382 0 0012 1.76 7.201 7.201 0 0116.721 0C20.741 0 24 3.297 24 7.363c0 4.067-3.259 7.363-7.279 7.363A7.201 7.201 0 0112 12.967z" fill="#F9A000"/><path fill-rule="evenodd" clip-rule="evenodd" d="M12 12.967a7.382 7.382 0 002.557-5.604A7.382 7.382 0 0012 1.76a7.382 7.382 0 00-2.557 5.604A7.38 7.38 0 0012 12.968z" fill="#FF5E00"/></svg>