<svg width="24" height="15" fill="none" xmlns="http://www.w3.org/2000/svg"><path d="M14.557 7.363c0 4.067-3.258 7.363-7.278 7.363S0 11.43 0 7.363C0 3.297 3.259 0 7.279 0s7.278 3.297 7.278 7.363z" fill="#ED0006"/><path d="M24 7.363c0 4.067-3.259 7.363-7.279 7.363S9.443 11.43 9.443 7.363C9.443 3.297 12.7 0 16.72 0S24 3.297 24 7.363z" fill="#0099DF"/><path fill-rule="evenodd" clip-rule="evenodd" d="M12 12.967a7.382 7.382 0 002.557-5.604A7.382 7.382 0 0012 1.76a7.382 7.382 0 00-2.557 5.604A7.38 7.38 0 0012 12.968z" fill="#6C6BBD"/></svg>