<svg width="28" height="9" fill="none" xmlns="http://www.w3.org/2000/svg"><path d="M25.159 0h-5.321c.31 1.756 2.014 3.41 3.874 3.41h4.236C28 3.255 28 2.996 28 2.84 28 1.291 26.709 0 25.159 0z" fill="url(#paint0_linear)"/><path d="M20.303 3.926v4.288h2.583V5.941h2.273c1.24 0 2.324-.878 2.686-2.015h-7.542zM10.745 0v7.956h2.274s.568 0 .878-.569C15.447 4.34 15.91 3.41 15.91 3.41h.31v4.546h2.583V0H16.53s-.568.052-.878.568a130.968 130.968 0 01-2.015 3.978h-.31V0h-2.583zM0 8.007V.052h2.583s.723 0 1.137 1.136c1.033 2.996 1.136 3.41 1.136 3.41s.207-.723 1.137-3.41C6.406.052 7.129.052 7.129.052h2.583v7.955H7.13V3.72h-.31L5.373 8.007H4.236L2.79 3.72h-.31v4.287H0z" fill="#4FAD50"/><defs><linearGradient id="paint0_linear" x1="19.828" y1="1.729" x2="27.982" y2="1.729" gradientUnits="userSpaceOnUse"><stop stop-color="#27B1E6"/><stop offset="1" stop-color="#148ACA"/></linearGradient></defs></svg>