<svg width="28" height="9" fill="none" xmlns="http://www.w3.org/2000/svg"><path fill-rule="evenodd" clip-rule="evenodd" d="M7 8.867H4.577L2.76 1.934c-.086-.319-.27-.6-.539-.734A7.888 7.888 0 000 .467V.2h3.904c.538 0 .942.4 1.01.866l.943 5.001L8.279.2h2.355L7 8.867zm4.981 0H9.693L11.577.2h2.289L11.98 8.867zM16.827 2.6c.067-.467.471-.734.942-.734a4.264 4.264 0 012.222.4L20.395.4a5.794 5.794 0 00-2.087-.4c-2.22 0-3.837 1.2-3.837 2.867 0 1.267 1.145 1.933 1.953 2.333.874.4 1.21.667 1.143 1.067 0 .6-.673.866-1.345.866-.808 0-1.617-.2-2.356-.533l-.404 1.867c.808.333 1.682.467 2.49.467C18.443 8.999 19.991 7.8 19.991 6c0-2.267-3.164-2.4-3.164-3.4zM28 8.867L26.183.2H24.23c-.404 0-.808.267-.943.667l-3.365 8h2.356l.47-1.267h2.895l.27 1.267H28zm-3.432-6.333L25.24 5.8h-1.884l1.212-3.266z" fill="#172B85"/></svg>