<svg width="28" height="7" fill="none" xmlns="http://www.w3.org/2000/svg"><g clip-path="url(#clip0)"><path d="M6.037 6.574L4.514 3.653a3.98 3.98 0 00.867-.378 3.28 3.28 0 00.68-.536c.19-.199.339-.41.445-.634a1.7 1.7 0 00.166-.687 1.46 1.46 0 00-.088-.547A1.215 1.215 0 006.305.44 1.16 1.16 0 005.86.17a1.419 1.419 0 00-.589-.062c-.16.015-.299.046-.416.091-.116.047-.215.1-.293.16a.917.917 0 00-.185.182.578.578 0 00-.088.157c-.013.045-.015.075-.002.088.04.038.084.11.135.215a1.847 1.847 0 01.176.851 1.011 1.011 0 01-.51.852L3.181.37a.084.084 0 00-.015-.026C3.16.329 3.143.32 3.121.318H.918C.895.318.881.324.874.334a.045.045 0 00-.01.03c0 .01.002.014.002.016l1.41 2.842c-.31.09-.599.214-.866.367a3.634 3.634 0 00-.705.523 2.588 2.588 0 00-.483.626 1.633 1.633 0 00-.2.675c-.01.195.014.377.072.545.059.169.144.317.259.445a1.225 1.225 0 00.931.409 1.28 1.28 0 00.78-.261c.098-.075.18-.153.243-.232a.941.941 0 00.133-.213c.027-.063.032-.105.02-.13a.876.876 0 01-.123-.19 1.45 1.45 0 01-.15-.72c.007-.141.049-.282.123-.423.074-.14.193-.27.358-.392l.94 2.323.01.022c.008.013.02.02.043.022h2.35c.025-.001.035-.009.033-.022-.003-.013-.004-.02-.007-.022zm5.597-1.795l.047-.336.064-.447c.023-.163.048-.33.074-.5l.072-.493.064-.425L12 2.28c.012-.073.017-.111.017-.113-.001-.018-.005-.03-.013-.035-.007-.006-.011-.009-.013-.009h-1.74a.141.141 0 00-.027.01c-.014.008-.023.02-.026.043l-.023.164c-.015.109-.034.255-.055.443a1.6 1.6 0 00-.269-.436 1.173 1.173 0 00-.924-.4c-.228.002-.44.041-.635.122-.196.079-.373.19-.531.333a2.33 2.33 0 00-.418.501c-.12.19-.218.4-.293.624a3.558 3.558 0 00-.176 1.414c.02.237.064.463.132.677.07.214.163.406.282.573.119.167.262.3.43.394.169.097.363.147.582.149a1.37 1.37 0 00.578-.13 1.89 1.89 0 00.505-.353c.153-.148.293-.32.415-.512.013.21.065.389.156.539.093.15.216.263.372.343.153.08.332.12.534.121.123-.001.243-.02.364-.058.119-.037.23-.087.335-.148a1.38 1.38 0 00.265-.203.703.703 0 00.159-.215c.017-.038.018-.066.001-.085a.322.322 0 00-.078-.058.497.497 0 01-.23-.28 1.185 1.185 0 01-.065-.347 3.101 3.101 0 01.023-.568zm-2.446.74a.424.424 0 01-.27-.093.589.589 0 01-.17-.254 1.3 1.3 0 01-.08-.378 2.624 2.624 0 01.112-.928c.046-.146.1-.272.169-.382a.869.869 0 01.233-.256.512.512 0 01.293-.094.42.42 0 01.272.094.631.631 0 01.175.256c.043.11.069.236.08.382.01.143.007.299-.013.465-.02.165-.052.32-.099.463-.045.144-.103.27-.17.378a.863.863 0 01-.237.254.531.531 0 01-.295.092zm8.418-3.283a.038.038 0 00-.01-.027c-.006-.005-.012-.008-.016-.008h.009a9.454 9.454 0 00-1.952-.205 8.69 8.69 0 00-1.835.205c-.006 0-.012.003-.02.01-.01.005-.013.017-.015.034l-.013.109a14.033 14.033 0 01-.103.685c-.024.15-.052.302-.084.459a8.62 8.62 0 01-.105.456 3.88 3.88 0 01-.121.394c-.1.252-.2.46-.3.626-.098.166-.192.3-.28.4-.09.1-.17.18-.239.235l-.167.137c-.04.033-.063.066-.068.098a.534.534 0 00.016.171 1.11 1.11 0 00.276.509.932.932 0 00.292.204c.117.054.256.082.417.084a1.23 1.23 0 00.633-.159c.186-.105.348-.27.485-.494a3.06 3.06 0 00.336-.86c.087-.35.157-.715.209-1.099.052-.383.087-.78.104-1.19h.706c-.024.188-.047.39-.074.608l-.082.669c-.027.228-.055.453-.08.673-.029.221-.055.428-.078.621l-.062.515-.044.35-.016.128c.002.02.008.034.018.038.01.005.016.008.017.006h1.68c.002.002.008-.001.018-.006.01-.004.016-.017.017-.038l.017-.142.047-.381.068-.556.081-.663.086-.704.083-.677.072-.585c.02-.175.038-.317.052-.427l.025-.203zm2.29.977l.043-.176a5.133 5.133 0 001.278-.293c.347-.137.621-.298.824-.483a1.55 1.55 0 00.422-.585 1.14 1.14 0 00-.157-1.13 1.265 1.265 0 00-.475-.373 1.52 1.52 0 00-.673-.127 2.37 2.37 0 00-.942.22 2.837 2.837 0 00-.783.547c-.234.23-.44.494-.618.79-.179.296-.33.611-.45.946a5.995 5.995 0 00-.367 2.01c0 .305.045.593.132.86.088.267.217.501.389.704a1.8 1.8 0 00.635.478c.253.115.543.174.872.176a2.75 2.75 0 00.773-.112c.245-.075.469-.182.67-.321.202-.138.375-.306.52-.503a2.03 2.03 0 00.32-.661c.07-.245.096-.51.076-.797a1.383 1.383 0 00-.2-.635 1.287 1.287 0 00-.431-.415 1.807 1.807 0 00-.58-.217 2.445 2.445 0 00-.648-.033 2.57 2.57 0 00-.63.13zm.948-2.015a.28.28 0 01.156.035c.032.024.05.055.058.09a.362.362 0 01.004.113.705.705 0 01-.123.303 1.448 1.448 0 01-.235.257c-.09.076-.179.144-.266.198a3.132 3.132 0 01-.308.174c.018-.063.043-.143.073-.24a3.93 3.93 0 01.109-.305 2.41 2.41 0 01.145-.302.923.923 0 01.178-.23.309.309 0 01.21-.093zm-.035 3.608a1.026 1.026 0 01-.03.2 1.9 1.9 0 01-.081.254 1.396 1.396 0 01-.135.253.697.697 0 01-.189.192.43.43 0 01-.243.077.332.332 0 01-.253-.105.632.632 0 01-.142-.272 1.79 1.79 0 01-.057-.37 3.742 3.742 0 01.002-.404 5.734 5.734 0 01.075-.635 1.34 1.34 0 01.274-.054.866.866 0 01.231.001.677.677 0 01.341.153.588.588 0 01.174.293c.032.119.044.258.034.417zm6.782-.027c.011-.088.026-.2.046-.336l.064-.447c.023-.163.048-.33.074-.5.025-.17.05-.334.072-.493l.064-.425c.02-.126.035-.226.045-.299l.018-.113c-.002-.018-.006-.03-.013-.035l-.013-.009h-1.742a.144.144 0 00-.026.01c-.014.008-.023.02-.026.043l-.023.164c-.014.109-.033.255-.055.443-.07-.166-.16-.31-.268-.436a1.173 1.173 0 00-.925-.4c-.227.002-.44.041-.635.122-.196.079-.373.19-.531.333-.16.143-.299.31-.418.501-.119.19-.218.4-.293.624a3.55 3.55 0 00-.175 1.414c.02.237.063.463.131.677.07.214.163.406.282.573.119.167.263.3.43.394.17.097.364.147.583.149a1.37 1.37 0 00.577-.13 1.89 1.89 0 00.505-.353c.154-.148.293-.32.415-.512.013.21.065.389.157.539.092.15.216.263.371.343.154.08.332.12.534.121a1.23 1.23 0 00.364-.058c.119-.037.23-.087.335-.148a1.42 1.42 0 00.266-.203.705.705 0 00.158-.215c.017-.038.019-.066.001-.085a.322.322 0 00-.078-.058.497.497 0 01-.23-.28 1.188 1.188 0 01-.065-.347 3.12 3.12 0 01.024-.568zm-2.447.74a.425.425 0 01-.27-.093.589.589 0 01-.17-.254 1.3 1.3 0 01-.079-.378 2.625 2.625 0 01.112-.928c.045-.146.1-.272.168-.382a.868.868 0 01.234-.256.512.512 0 01.293-.094.42.42 0 01.271.094.631.631 0 01.176.256c.042.11.068.236.08.382.01.143.007.299-.014.465-.02.165-.052.32-.098.463-.045.144-.103.27-.171.378a.864.864 0 01-.237.254.531.531 0 01-.294.092z" fill="#603226"/></g><defs><clipPath id="clip0"><path fill="#fff" d="M0 0h28v6.829H0z"/></clipPath></defs></svg>