<svg width="18" height="22" fill="none" xmlns="http://www.w3.org/2000/svg"><path fill-rule="evenodd" clip-rule="evenodd" d="M8.783 5.074c1.234.104 2.468-.625 3.239-1.548.758-.95 1.26-2.225 1.13-3.526-1.092.052-2.441.729-3.212 1.678-.707.82-1.311 2.147-1.157 3.396zm1.477.896c.801-.318 1.793-.713 2.88-.65.694.053 2.699.261 3.984 2.186l-.038.026c-.319.21-2.338 1.54-2.314 4.163.024 3.127 2.54 4.293 2.87 4.445l.034.017a1.09 1.09 0 00-.007.025 11.981 11.981 0 01-1.483 3.085c-.913 1.353-1.851 2.68-3.342 2.706-.701.012-1.174-.194-1.666-.41-.518-.226-1.057-.462-1.907-.462-.88 0-1.444.242-1.986.475-.472.203-.927.398-1.56.423-1.44.052-2.532-1.431-3.445-2.784C.417 16.483-1.01 11.513.918 8.157c.938-1.678 2.647-2.732 4.485-2.758.802-.015 1.566.293 2.235.561.51.206.965.389 1.338.389.332 0 .768-.174 1.284-.379z" fill="#000"/></svg>