<svg width="20" height="21" fill="none" xmlns="http://www.w3.org/2000/svg"><path d="M20 10.583c0-.705-.057-1.41-.17-2.1h-9.623v3.983h5.513a4.799 4.799 0 01-2.04 3.149v2.588h3.287C18.895 16.406 20 13.746 20 10.583z" fill="#4285F4"/><path d="M10.208 20.705c2.749 0 5.073-.92 6.76-2.502l-3.288-2.588c-.921.633-2.098.992-3.472.992-2.665 0-4.918-1.826-5.726-4.27H1.095v2.674c1.73 3.494 5.258 5.694 9.113 5.694z" fill="#34A853"/><path d="M4.483 12.337a6.331 6.331 0 010-3.968v-2.66H1.095a10.396 10.396 0 000 9.288l3.388-2.66z" fill="#FBBC04"/><path d="M10.208 4.098a5.449 5.449 0 013.911 1.553l2.92-2.962A9.772 9.772 0 0010.207.001C6.353 0 2.824 2.215 1.095 5.709l3.387 2.674c.808-2.459 3.061-4.285 5.726-4.285z" fill="#EA4335"/></svg>