<svg width="20" height="20" fill="none" xmlns="http://www.w3.org/2000/svg"><path fill-rule="evenodd" clip-rule="evenodd" d="M0 8.921c0 4.888 3.986 8.875 8.921 8.875.606 0 1.212-.053 1.908-.114a40.195 40.195 0 012.79-.171c1.709 0 3.56.617 5.6 2.42.19.19.475-.047.285-.285-2.04-2.515-3.891-2.99-5.742-3.416-2.278-.523-3.464-1.756-4.271-3.18-.142-.285-.237-.237-.237.142-.048.57 0 1.092.095 1.614h-.285c-3.227 0-5.885-2.658-5.885-5.884 0-3.227 2.658-5.885 5.885-5.885s5.884 2.658 5.884 5.885c0 .19 0 .427-.047.664-.475-.095-1.281-.095-1.898-.048-.238 0-.238.095-.048.143 1.898.38 3.227 1.566 3.56 3.749 0 .095.047.095.094.047a9.21 9.21 0 001.234-4.556A8.911 8.911 0 008.922 0C3.986 0 0 4.034 0 8.921zm15.375 3.655c.332.142.475.616.475.854.047.38-.048.57-.19.57-.142 0-.332-.143-.522-.475-.19-.333-.285-.665-.19-.855.143-.095.285-.142.427-.095zm-1.945 1.47c.19 0 .427.096.664.285.38.333.522.712.332.997-.095.142-.332.237-.522.237a.902.902 0 01-.617-.237c-.38-.332-.474-.807-.237-1.091.047-.095.19-.19.38-.19z" fill="#F28A1A"/></svg>