<svg width="21" height="20" fill="none" xmlns="http://www.w3.org/2000/svg"><path fill-rule="evenodd" clip-rule="evenodd" d="M10.273 0c1.613 0 3.14.366 4.502 1.015a9 9 0 01.64.327l-.946.824-1.42-1.43-2.399 2.082-1.424-1.513-4.467 3.92 2.864 3.071-1.126.964 2.82 3.077-1.118.961 4.031 4.368 2.393-2.145 2.069 2.298c-.412.311-.86.604-1.354.875A10.41 10.41 0 0110.273 20C4.615 20 0 15.507 0 10 0 4.492 4.615 0 10.273 0zM8.401 9.368l2.443-2.141 2.2 2.378-2.443 2.14-2.2-2.377zm4.18 1.968l-2.443 2.14 2.2 2.38 2.443-2.142-2.2-2.378zM6.653 5.307l2.443-2.14 2.199 2.377-2.443 2.141-2.2-2.378zm6.315-2.758l-1.832 1.606 1.65 1.784 1.832-1.606-1.65-1.784zm1.423 8.96l1.833-1.605 1.65 1.784-1.833 1.605-1.65-1.783zm3.444 1.997l-1.832 1.606 1.65 1.783 1.832-1.606-1.65-1.783zm-1.094-6.65l1.221-1.07 1.1 1.188-1.22 1.07-1.101-1.188zm-.34-4.603l-1.22 1.07 1.099 1.19 1.222-1.071-1.1-1.189zm1.901 8.136l1.222-1.07 1.1 1.188-1.222 1.07-1.1-1.188zm-3.645-4.254l-1.832 1.606 1.65 1.783 1.831-1.605-1.65-1.784z" fill="#0068A3"/></svg>