<svg width="20" height="19" fill="none" xmlns="http://www.w3.org/2000/svg"><path d="M20 7.66c-.105-.629-.68-1.048-1.466-1.048h-.733c-.471-.052-.576.105-.576.472v5.445c0 .942-.942 1.937-2.042 2.146-3.455.786-6.91 1.519-10.366 2.304-.367.105-.786.105-1.204.105-.158 0-.42-.105-.472-.262-.052-.105.105-.314.21-.419.157-.105.366-.21.576-.314.628-.21 1.309-.419 1.937-.628 2.565-.838 5.13-1.676 7.696-2.566 1.152-.366 1.78-1.152 1.78-2.146.053-3.142 0-6.336 0-9.477 0-.523-.261-.942-.837-1.152-.681-.261-1.31-.052-1.885.21C8.953 2.057 5.34 3.785 1.675 5.513.628 6.037 0 6.77 0 7.817v8.953c0 .157 0 .314.052.418.367.995 1.31 1.623 2.566 1.623h15.34c.576 0 1.047-.104 1.466-.47.524-.42.524-.996.524-1.52 0-2.575.052-9.161.052-9.161zM9.32 6.717c.261-.68.837-1.1 1.675-1.204.576-.052 1.047.262 1.152.785.104.786-.838 1.728-1.833 1.728-.785 0-1.256-.576-.995-1.309z" fill="#FD6727"/></svg>